<svg xmlns="http://www.w3.org/2000/svg" version="1.1" xmlns:xlink="http://www.w3.org/1999/xlink" xmlns:svgjs="http://svgjs.com/svgjs" width="760.000000pt" height="840.000000pt"><svg version="1.0" xmlns="http://www.w3.org/2000/svg" width="760.000000pt" height="840.000000pt" viewBox="0 0 760.000000 840.000000" preserveAspectRatio="xMidYMid meet">

<g transform="translate(0.000000,840.000000) scale(0.100000,-0.100000)" fill="#000000" stroke="none">
<path d="M6191 8140 c-29 -54 -121 -158 -187 -212 -279 -227 -695 -381 -1243
-458 -161 -23 -471 -53 -477 -47 -3 2 16 10 42 16 169 43 510 160 497 171 -4
4 -116 38 -248 74 -537 150 -924 276 -1140 371 -173 76 -188 79 -370 79 -135
0 -180 -4 -286 -27 -159 -33 -301 -83 -454 -156 -155 -74 -247 -135 -334 -222
-96 -94 -179 -260 -217 -429 -58 -257 -24 -542 77 -646 l30 -31 -62 -104 c-85
-142 -259 -500 -308 -634 -22 -60 -55 -164 -72 -230 -27 -104 -31 -138 -33
-257 l-1 -137 -161 0 c-182 0 -302 -17 -436 -61 -246 -82 -398 -206 -494 -403
-64 -131 -79 -210 -79 -407 0 -145 3 -174 23 -240 40 -127 98 -226 182 -311
149 -150 322 -240 572 -298 l117 -27 71 -94 70 -93 0 -277 0 -277 -39 -89
c-195 -453 -216 -903 -58 -1238 l43 -91 24 122 24 122 27 -82 c151 -458 387
-796 597 -857 39 -11 38 -17 12 130 -12 62 -19 117 -18 121 2 5 28 -23 58 -63
245 -321 634 -585 955 -647 33 -7 70 -14 83 -17 39 -8 10 28 -68 85 -170 124
-365 344 -512 577 -82 131 -266 490 -302 592 -126 353 -135 788 -26 1315 38
186 60 239 113 270 16 9 127 13 407 17 l385 6 82 27 c179 60 347 186 451 338
95 140 182 373 217 584 9 56 63 105 114 105 23 0 52 -9 72 -23 30 -20 36 -32
52 -97 60 -256 108 -389 186 -516 128 -206 292 -334 515 -398 87 -26 92 -26
443 -26 379 0 382 0 430 -52 56 -61 110 -408 120 -773 12 -458 -39 -705 -218
-1065 -107 -215 -213 -394 -315 -531 -83 -112 -234 -269 -327 -338 -32 -24
-56 -46 -53 -48 6 -6 269 112 381 172 273 145 467 291 571 428 26 34 44 53 41
42 -3 -11 -13 -58 -22 -105 -9 -47 -19 -93 -22 -104 -4 -14 9 -9 53 22 237
161 416 396 504 660 15 48 32 108 35 135 4 26 10 47 14 47 4 0 16 -46 27 -102
10 -57 23 -102 29 -102 16 3 94 157 125 249 106 316 86 644 -60 1027 l-30 77
0 353 c0 412 -1 405 90 450 41 20 83 30 160 38 191 21 336 77 460 177 128 104
234 267 286 438 24 80 27 107 28 240 1 174 -18 264 -84 400 -126 257 -369 431
-665 475 -114 17 -361 -2 -448 -36 -9 -3 -12 45 -12 198 0 174 -4 219 -24 318
-72 348 -247 686 -475 919 l-67 69 57 64 c239 267 420 612 485 927 25 123 40
309 31 391 -7 62 -8 64 -21 40z m-2814 -3837 c-12 -305 -94 -513 -271 -688
-131 -130 -263 -194 -470 -230 -177 -30 -464 -13 -686 40 -130 32 -190 54
-305 113 -74 37 -107 63 -185 141 -107 108 -157 192 -186 316 -18 80 -15 313
6 398 l12 47 1045 0 1046 0 -6 -137z m3018 43 c4 -18 2 -89 -4 -157 -39 -456
-267 -752 -653 -850 -119 -30 -418 -38 -578 -15 -161 24 -265 50 -384 96 -324
127 -506 375 -506 690 0 83 15 207 31 247 l9 23 1039 0 1040 0 6 -34z"></path>
<path d="M3429 3169 c-20 -20 -21 -29 -16 -100 12 -178 132 -281 347 -297 254
-20 402 76 481 312 l23 69 -23 18 c-20 16 -41 19 -140 19 -144 0 -160 -4 -168
-42 -8 -40 -32 -49 -121 -46 -76 3 -77 3 -93 36 -8 19 -22 38 -30 43 -8 5 -65
9 -126 9 -102 0 -115 -2 -134 -21z"></path>
<path d="M2626 2549 c-71 -10 -168 -54 -219 -98 -20 -18 -48 -56 -62 -84 -68
-140 -72 -405 -9 -530 23 -44 21 -43 46 -12 28 36 76 55 138 55 65 0 104 -20
210 -111 241 -205 562 -364 871 -430 89 -19 135 -23 309 -23 230 0 306 12 520
81 195 62 540 249 540 293 0 27 -20 28 -176 3 -757 -117 -1418 -61 -1800 152
-141 79 -283 217 -339 329 -30 59 -31 97 -6 151 25 55 113 160 163 192 34 23
37 28 22 34 -25 10 -134 9 -208 -2z"></path>
<path d="M2898 1398 c-7 -20 59 -155 118 -245 117 -176 261 -263 440 -263 126
0 246 42 394 137 127 82 123 89 -52 89 -97 0 -169 6 -223 18 -160 34 -417 138
-582 234 -77 45 -89 49 -95 30z"></path>
</g>
</svg><style>@media (prefers-color-scheme: light) { :root { filter: none; } }
@media (prefers-color-scheme: dark) { :root { filter: invert(100%); } }
</style></svg>